<?xml version="1.0" standalone="no"?>
<!DOCTYPE svg PUBLIC "-//W3C//DTD SVG 20010904//EN"
 "http://www.w3.org/TR/2001/REC-SVG-20010904/DTD/svg10.dtd">
<svg version="1.0" xmlns="http://www.w3.org/2000/svg"
 width="257.000000pt" height="300.000000pt" viewBox="0 0 257.000000 300.000000"
 preserveAspectRatio="xMidYMid meet">
<metadata>
Created by potrace 1.16, written by Peter Selinger 2001-2019
</metadata>
<g transform="translate(0.000000,300.000000) scale(0.100000,-0.100000)"
fill="#000000" stroke="none">
<path d="M1206 2981 c-308 -68 -542 -196 -767 -420 -233 -233 -366 -488 -421
-806 -17 -102 -19 -148 -15 -305 6 -214 28 -331 97 -503 81 -202 176 -343 345
-513 181 -182 368 -296 608 -373 167 -53 254 -64 497 -58 242 5 318 19 515 98
167 67 370 196 470 299 l39 40 -81 82 -82 82 -46 -40 c-148 -124 -251 -187
-406 -249 -174 -70 -372 -95 -599 -76 -181 15 -386 88 -550 197 -291 192 -491
490 -555 825 -20 108 -20 358 0 475 79 450 430 842 877 978 416 127 889 26
1207 -257 35 -31 66 -57 70 -57 4 0 42 36 86 80 l79 80 -29 31 c-34 35 -169
141 -231 181 -118 76 -287 148 -444 190 -110 29 -126 31 -345 34 -199 3 -242
1 -319 -15z"/>
<path d="M2000 2431 c0 -5 7 -14 15 -21 8 -7 15 -19 15 -28 0 -9 -73 -88 -162
-177 -264 -261 -534 -451 -928 -649 -124 -62 -240 -118 -257 -124 -18 -6 -33
-16 -33 -21 0 -15 -5 -16 161 39 360 120 725 307 983 503 45 34 142 118 217
188 l136 128 31 -32 c17 -17 33 -29 35 -26 1 2 1 52 -1 110 l-4 107 -36 6
c-56 9 -172 7 -172 -3z"/>
<path d="M2057 1989 c-38 -38 -113 -102 -166 -142 -54 -39 -109 -81 -124 -92
l-26 -20 -7 -657 c-7 -619 -6 -658 10 -658 51 0 283 96 361 150 l45 31 0 548
c0 544 -8 912 -19 910 -3 -1 -37 -33 -74 -70z"/>
<path d="M1460 1580 c-52 -27 -143 -70 -202 -97 l-108 -48 0 -493 0 -492 28
-11 c48 -19 174 -39 292 -45 l115 -7 -2 529 c-3 522 -9 714 -21 713 -4 0 -50
-22 -102 -49z"/>
<path d="M830 1320 c-80 -27 -178 -58 -217 -69 l-73 -22 0 -67 c1 -134 17
-240 45 -289 39 -66 199 -220 303 -291 50 -34 93 -62 96 -62 3 0 6 191 6 425
0 234 -3 425 -7 424 -5 0 -73 -22 -153 -49z"/>
</g>
</svg>
